Coordinates
version=1
nRows=29
nColumns=24
inDegrees=yes

Units are S.I. units (second, meters, Newtons, ...)
Angles are in degrees.

endheader
time	pelvis_tilt	pelvis_list	pelvis_rotation	pelvis_tx	pelvis_ty	pelvis_tz	hip_flexion_r	hip_adduction_r	hip_rotation_r	knee_angle_r	ankle_angle_r	subtalar_angle_r	mtp_angle_r	hip_flexion_l	hip_adduction_l	hip_rotation_l	knee_angle_l	ankle_angle_l	subtalar_angle_l	mtp_angle_l	lumbar_extension	lumbar_bending	lumbar_rotation
      0.97500000	      4.28009925	     -3.47335096	     -1.54720606	     -0.33879811	      1.08166790	      0.35021407	     -0.16611384	      8.73005703	     -9.48453223	     -5.91972635	     -1.38364930	     -3.85119901	      4.83742307	      7.92349913	     -5.20156358	     -1.04543910	    -58.38249159	     -0.86675094	     -2.18537609	     14.59810296	      1.99515065	      8.59120797	      0.94067228
      0.97916667	      4.27378843	     -3.43544324	     -1.70547178	     -0.33420364	      1.08205408	      0.35060963	     -0.54546977	      8.71872121	     -9.23603284	     -5.70370420	     -1.38035907	     -4.07913774	      4.86311347	      8.38774160	     -5.10031773	     -0.94550546	    -57.94002057	     -0.41509712	     -2.83494706	     14.47109353	      1.92239824	      8.58174847	      1.11415038
      0.98333333	      4.27144608	     -3.41590527	     -1.81464248	     -0.32957665	      1.08242110	      0.35103833	     -0.95025626	      8.73848604	     -8.96036156	     -5.44302161	     -1.37829885	     -4.25975027	      4.88831249	      8.84674185	     -5.02657611	     -0.80615658	    -57.46284936	     -0.05363060	     -3.43707396	     14.33294280	      1.87984327	      8.54528910	      1.28825184
      0.98750000	      4.25581517	     -3.40996376	     -1.85883074	     -0.32494072	      1.08272717	      0.35143780	     -1.35172005	      8.78112391	     -8.71006605	     -5.15213441	     -1.35781277	     -4.31476071	      4.90134744	      9.32622713	     -4.96670319	     -0.59842696	    -56.95889604	      0.23250027	     -3.84759790	     14.25690187	      1.87112777	      8.48208177	      1.39111729
      0.99166667	      4.24359074	     -3.37866108	     -1.95702961	     -0.32034071	      1.08303191	      0.35182501	     -1.74158227	      8.78315476	     -8.46379989	     -4.89595188	     -1.32406794	     -4.44978343	      4.91368000	      9.77604507	     -4.87438934	     -0.44809013	    -56.39965052	      0.62485714	     -4.45374010	     14.16483270	      1.85911861	      8.42377884	      1.50599923
      0.99583333	      4.21283730	     -3.34798356	     -2.06875794	     -0.31576471	      1.08328196	      0.35223271	     -2.10531077	      8.78492476	     -8.20324102	     -4.65489716	     -1.29429503	     -4.62211464	      4.92616483	     10.23403671	     -4.78857766	     -0.32004615	    -55.79992061	      0.93605235	     -5.11847677	     14.05058266	      1.83800654	      8.37235750	      1.63745816
      1.00000000	      4.17967370	     -3.31541190	     -2.16830544	     -0.31119789	      1.08350396	      0.35261230	     -2.46751238	      8.78321279	     -7.94952092	     -4.40111207	     -1.26749756	     -4.78235342	      4.93688694	     10.68600186	     -4.69676821	     -0.17875292	    -55.15494701	      1.18391389	     -5.74559445	     13.93301852	      1.83422332	      8.32020810	      1.76732028
      1.00416667	      4.11457880	     -3.27427217	     -2.36441975	     -0.30670977	      1.08368007	      0.35304419	     -2.76943639	      8.75864667	     -7.66642907	     -4.20623359	     -1.27565584	     -5.12458472	      4.95651655	     11.14603311	     -4.60757798	     -0.14906513	    -54.45336842	      1.27023616	     -6.66240850	     13.66028665	      1.75823686	      8.32329903	      1.99437728
      1.00833333	      4.09103023	     -3.25508949	     -2.37956554	     -0.30209784	      1.08384429	      0.35338168	     -3.15906087	      8.78098569	     -7.45574092	     -3.91895060	     -1.23858947	     -5.16495572	      4.96384173	     11.57719404	     -4.52909423	      0.07471037	    -53.74386901	      1.48960784	     -7.02483909	     13.56477569	      1.80680712	      8.25330008	      2.08388752
      1.01250000	      4.02864326	     -3.20720637	     -2.55134335	     -0.29760336	      1.08396834	      0.35375230	     -3.46146745	      8.74423841	     -7.21730519	     -3.72807057	     -1.19018601	     -5.41217919	      4.97439239	     12.01189540	     -4.43027036	      0.12058296	    -52.97132301	      1.70784474	     -7.87035173	     13.33650105	      1.75903063	      8.21156612	      2.22663434
      1.01666667	      3.98944591	     -3.17214647	     -2.63409350	     -0.29303457	      1.08407767	      0.35410426	     -3.81788104	      8.73449362	     -6.97792076	     -3.47393519	     -1.15574880	     -5.58537658	      4.98345399	     12.41968645	     -4.34222643	      0.25396297	    -52.16142547	      1.82121736	     -8.55129685	     13.09802683	      1.78327465	      8.14916161	      2.37083820
      1.02083333	      3.94597117	     -3.15801789	     -2.64732727	     -0.28848866	      1.08412254	      0.35440200	     -4.17669031	      8.75742022	     -6.76742984	     -3.19357265	     -1.11274613	     -5.63174085	      4.98763072	     12.84326916	     -4.27062377	      0.45903013	    -51.34567569	      1.96605965	     -8.95929261	     12.97575926	      1.82412271	      8.10136337	      2.44729954
      1.02500000	      3.89364393	     -3.12551555	     -2.73052544	     -0.28391574	      1.08416081	      0.35470029	     -4.51149816	      8.74355806	     -6.56719965	     -2.95914879	     -1.04341710	     -5.77095240	      4.99003625	     13.23983213	     -4.18512075	      0.58145729	    -50.47064323	      2.14049792	     -9.62213622	     12.81542795	      1.86017186	      8.03886684	      2.53512974
      1.02916667	      3.83904895	     -3.09544222	     -2.82551005	     -0.27941117	      1.08416224	      0.35499832	     -4.83816411	      8.72882178	     -6.33396187	     -2.73120394	     -0.99264060	     -5.94901451	      4.99089793	     13.62822146	     -4.10464895	      0.69179129	    -49.55186952	      2.15621434	    -10.39383422	     12.58981952	      1.87126934	      7.99142434	      2.64232460
      1.03333333	      3.75569292	     -3.06813444	     -2.94961293	     -0.27493786	      1.08409754	      0.35531238	     -5.11623699	      8.71481172	     -6.13923730	     -2.53392168	     -0.95958458	     -6.18452219	      4.98875135	     14.03647837	     -4.03829772	      0.74683009	    -48.60143553	      2.05317498	    -11.20143386	     12.24044609	      1.81778654	      7.97401116	      2.76986414
      1.03750000	      3.70441986	     -3.04563864	     -3.01037494	     -0.27037728	      1.08404125	      0.35557237	     -5.45004257	      8.70920439	     -5.96577537	     -2.29851856	     -0.90651371	     -6.30801254	      4.98585483	     14.39666825	     -3.96630186	      0.87300138	    -47.61987544	      2.09280251	    -11.78288903	     11.92031644	      1.84354292	      7.93072076	      2.87221463
      1.04166667	      3.65732779	     -3.04798849	     -2.99714856	     -0.26585077	      1.08392186	      0.35576428	     -5.79671262	      8.74131500	     -5.81522323	     -2.03249493	     -0.85572029	     -6.32330130	      4.98472974	     14.76464530	     -3.91341587	      1.07068714	    -46.63700388	      2.16598110	    -12.06965049	     11.79902013	      1.89772885	      7.93935764	      2.91195211
      1.04583333	      3.61133962	     -3.03180260	     -3.04077236	     -0.26127444	      1.08380993	      0.35598194	     -6.14000442	      8.74058113	     -5.65482120	     -1.79295573	     -0.76747720	     -6.43141199	      4.98041262	     15.09541939	     -3.84784577	      1.19352516	    -45.59606406	      2.22326065	    -12.66198368	     11.61663004	      1.95753369	      7.88593425	      2.97003340
      1.05000000	      3.55203304	     -3.02804319	     -3.08889059	     -0.25673331	      1.08364613	      0.35618082	     -6.46554080	      8.75058308	     -5.47023259	     -1.55825428	     -0.70157882	     -6.55335085	      4.97316720	     15.43214554	     -3.79963530	      1.30451589	    -44.52619893	      2.13481799	    -13.30231675	     11.38900834	      1.97717295	      7.87647417	      3.02695434
      1.05416667	      3.49762163	     -3.02525761	     -3.13617582	     -0.25220593	      1.08345230	      0.35638141	     -6.78714813	      8.75965305	     -5.33224749	     -1.34050563	     -0.64396161	     -6.66130903	      4.96429016	     15.75132310	     -3.75503783	      1.40961786	    -43.42605076	      2.04761168	    -13.85055817	     11.15935530	      1.99555476	      7.86509137	      3.08388789
      1.05833333	      3.43388602	     -3.04555208	     -3.16581045	     -0.24768857	      1.08319667	      0.35652570	     -7.10243331	      8.79400815	     -5.17494559	     -1.11701452	     -0.57880683	     -6.76380308	      4.95354478	     16.07623840	     -3.73179522	      1.52571731	    -42.31426381	      1.96064752	    -14.38641052	     10.91236845	      2.01299751	      7.89055190	      3.13419815
      1.06250000	      3.37795154	     -3.06404060	     -3.20455216	     -0.24320554	      1.08292871	      0.35662119	     -7.41124300	      8.81613521	     -5.06719382	     -0.92762707	     -0.52323952	     -6.84525638	      4.94323757	     16.37707813	     -3.70485028	      1.65446671	    -41.16822865	      1.89236097	    -14.78615556	     10.70283503	      2.01707995	      7.90813103	      3.17097415
      1.06666667	      3.32349556	     -3.08867155	     -3.21072352	     -0.23862823	      1.08262056	      0.35680273	     -7.74371936	      8.86086701	     -4.94334517	     -0.68722206	     -0.44874709	     -6.91954029	      4.93180852	     16.66880003	     -3.69441582	      1.74061524	    -40.00986863	      1.80920918	    -15.22069997	     10.48314209	      2.04784519	      7.92630083	      3.20806945
      1.07083333	      3.26933208	     -3.12466583	     -3.23942078	     -0.23410590	      1.08228514	      0.35688803	     -8.06182913	      8.90094699	     -4.82580931	     -0.48819568	     -0.37897395	     -6.99583143	      4.91865265	     16.94331797	     -3.69095613	      1.84291666	    -38.81948869	      1.69398412	    -15.63351177	     10.25089638	      2.06434449	      7.96885527	      3.23859466
      1.07500000	      3.15582708	     -3.19345896	     -3.24583601	     -0.22963191	      1.08179479	      0.35697488	     -8.29581103	      8.98998839	     -4.82093637	     -0.31137454	     -0.34466014	     -7.01157469	      4.91572936	     17.29676529	     -3.72895430	      1.92656350	    -37.66076675	      1.72830013	    -15.71524528	     10.20141027	      1.96448577	      8.04827376	      3.22534425
      1.07916667	      3.07462963	     -3.24815231	     -3.23749509	     -0.22508149	      1.08133488	      0.35700623	     -8.58064553	      9.05568792	     -4.77514626	     -0.11555664	     -0.29029895	     -7.02819383	      4.91281274	     17.58956593	     -3.74186455	      2.03527858	    -36.45179765	      1.74628983	    -15.83409196	     10.14836356	      1.95909383	      8.13682957	      3.22031791
      1.08333333	      3.08240873	     -3.28307157	     -3.30579603	     -0.22045808	      1.08102288	      0.35723175	     -8.99522774	      9.08774255	     -4.49303899	      0.11843571	     -0.09845663	     -7.22829646	      4.88324672	     17.73734918	     -3.76389262	      2.00624427	    -35.15167885	      1.25171896	    -16.75512473	      9.70025091	      2.01585340	      8.03212060	      3.29512608
      1.08750000	      3.07013359	     -3.36623480	     -3.25694331	     -0.21597419	      1.08056855	      0.35721823	     -9.36591686	      9.18521042	     -4.38155516	      0.34937398	     -0.14306906	     -7.41408010	      4.80587890	     17.94847331	     -3.79945995	      2.11751566	    -33.89907003	      0.90235038	    -17.16715638	      8.68159547	      1.95399412	      8.17654953	      3.41101493
      1.09166667	      2.98443644	     -3.43284108	     -3.31331080	     -0.21135250	      1.08003500	      0.35736096	     -9.65346757	      9.25214773	     -4.23710082	      0.52904937	      0.07861338	     -7.33455942	      4.75976646	     18.19043543	     -3.85743985	      2.09636300	    -32.63974068	      1.18034813	    -17.00641963	      8.04976546	      2.02775536	      8.20036781	      3.38488806
